<mxfile host="Electron" agent="Mozilla/5.0 (Windows NT 10.0; Win64; x64) AppleWebKit/537.36 (KHTML, like Gecko) draw.io/28.0.6 Chrome/138.0.7204.100 Electron/37.2.3 Safari/537.36" version="28.0.6">
  <diagram name="Página-1" id="LlEE5ao05FWPWYFlPE66">
    <mxGraphModel dx="1188" dy="701" grid="0" gridSize="10" guides="1" tooltips="1" connect="1" arrows="1" fold="1" page="1" pageScale="1" pageWidth="827" pageHeight="1169" math="0" shadow="0">
      <root>
        <mxCell id="0" />
        <mxCell id="1" parent="0" />
        <mxCell id="yutas-239o2DtW6p7gl9-11" value="Petición de verificación de elaboración de examen, entrega de tareas y otros casos" style="shape=table;startSize=28;container=1;collapsible=0;childLayout=tableLayout;fixedRows=1;rowLines=0;fontStyle=0;strokeColor=default;fontSize=15;fontFamily=Times New Roman;" vertex="1" parent="1">
          <mxGeometry x="24" y="28" width="498.6970443349751" height="94.86206896551734" as="geometry" />
        </mxCell>
        <mxCell id="yutas-239o2DtW6p7gl9-12" value="" style="shape=tableRow;horizontal=0;startSize=0;swimlaneHead=0;swimlaneBody=0;top=0;left=0;bottom=0;right=0;collapsible=0;dropTarget=0;fillColor=none;points=[[0,0.5],[1,0.5]];portConstraint=eastwest;strokeColor=inherit;fontSize=16;fontFamily=Times New Roman;" vertex="1" parent="yutas-239o2DtW6p7gl9-11">
          <mxGeometry y="28" width="498.6970443349751" height="20" as="geometry" />
        </mxCell>
        <mxCell id="yutas-239o2DtW6p7gl9-13" value="&lt;font style=&quot;font-size: 14px;&quot;&gt;Detalle&lt;/font&gt;&lt;div&gt;&lt;br&gt;&lt;/div&gt;" style="shape=partialRectangle;html=1;whiteSpace=wrap;connectable=0;fillColor=none;top=0;left=0;bottom=0;right=0;overflow=hidden;pointerEvents=1;strokeColor=inherit;fontSize=16;fontFamily=Times New Roman;" vertex="1" parent="yutas-239o2DtW6p7gl9-12">
          <mxGeometry width="76" height="20" as="geometry">
            <mxRectangle width="76" height="20" as="alternateBounds" />
          </mxGeometry>
        </mxCell>
        <mxCell id="yutas-239o2DtW6p7gl9-14" value="&lt;font style=&quot;font-size: 14px;&quot;&gt;Ciclo 01-2025&lt;/font&gt;" style="shape=partialRectangle;html=1;whiteSpace=wrap;connectable=0;fillColor=none;top=0;left=0;bottom=0;right=0;align=left;spacingLeft=6;overflow=hidden;strokeColor=inherit;fontSize=16;fontFamily=Times New Roman;" vertex="1" parent="yutas-239o2DtW6p7gl9-12">
          <mxGeometry x="76" width="423" height="20" as="geometry">
            <mxRectangle width="423" height="20" as="alternateBounds" />
          </mxGeometry>
        </mxCell>
        <mxCell id="yutas-239o2DtW6p7gl9-15" value="" style="shape=tableRow;horizontal=0;startSize=0;swimlaneHead=0;swimlaneBody=0;top=0;left=0;bottom=0;right=0;collapsible=0;dropTarget=0;fillColor=none;points=[[0,0.5],[1,0.5]];portConstraint=eastwest;strokeColor=inherit;fontSize=16;fontFamily=Times New Roman;" vertex="1" parent="yutas-239o2DtW6p7gl9-11">
          <mxGeometry y="48" width="498.6970443349751" height="25" as="geometry" />
        </mxCell>
        <mxCell id="yutas-239o2DtW6p7gl9-16" value="&lt;font style=&quot;font-size: 14px;&quot;&gt;Encargado&lt;/font&gt;" style="shape=partialRectangle;html=1;whiteSpace=wrap;connectable=0;fillColor=none;top=0;left=0;bottom=0;right=0;overflow=hidden;strokeColor=inherit;fontSize=16;fontFamily=Times New Roman;" vertex="1" parent="yutas-239o2DtW6p7gl9-15">
          <mxGeometry width="76" height="25" as="geometry">
            <mxRectangle width="76" height="25" as="alternateBounds" />
          </mxGeometry>
        </mxCell>
        <mxCell id="yutas-239o2DtW6p7gl9-17" value="&lt;span style=&quot;font-size: 14px;&quot;&gt;Juan José, Mauricio Chinchilla y René Cruz&lt;/span&gt;" style="shape=partialRectangle;html=1;whiteSpace=wrap;connectable=0;fillColor=none;top=0;left=0;bottom=0;right=0;align=left;spacingLeft=6;overflow=hidden;strokeColor=inherit;fontSize=16;fontFamily=Times New Roman;" vertex="1" parent="yutas-239o2DtW6p7gl9-15">
          <mxGeometry x="76" width="423" height="25" as="geometry">
            <mxRectangle width="423" height="25" as="alternateBounds" />
          </mxGeometry>
        </mxCell>
        <mxCell id="yutas-239o2DtW6p7gl9-18" value="" style="shape=tableRow;horizontal=0;startSize=0;swimlaneHead=0;swimlaneBody=0;top=0;left=0;bottom=0;right=0;collapsible=0;dropTarget=0;fillColor=none;points=[[0,0.5],[1,0.5]];portConstraint=eastwest;strokeColor=inherit;fontSize=16;fontFamily=Times New Roman;" vertex="1" parent="yutas-239o2DtW6p7gl9-11">
          <mxGeometry y="73" width="498.6970443349751" height="20" as="geometry" />
        </mxCell>
        <mxCell id="yutas-239o2DtW6p7gl9-19" value="" style="shape=partialRectangle;html=1;whiteSpace=wrap;connectable=0;fillColor=none;top=0;left=0;bottom=0;right=0;overflow=hidden;strokeColor=inherit;fontSize=16;fontFamily=Times New Roman;" vertex="1" parent="yutas-239o2DtW6p7gl9-18">
          <mxGeometry width="76" height="20" as="geometry">
            <mxRectangle width="76" height="20" as="alternateBounds" />
          </mxGeometry>
        </mxCell>
        <mxCell id="yutas-239o2DtW6p7gl9-20" value="" style="shape=partialRectangle;html=1;whiteSpace=wrap;connectable=0;fillColor=none;top=0;left=0;bottom=0;right=0;align=left;spacingLeft=6;overflow=hidden;strokeColor=inherit;fontSize=16;fontFamily=Times New Roman;" vertex="1" parent="yutas-239o2DtW6p7gl9-18">
          <mxGeometry x="76" width="423" height="20" as="geometry">
            <mxRectangle width="423" height="20" as="alternateBounds" />
          </mxGeometry>
        </mxCell>
        <mxCell id="yutas-239o2DtW6p7gl9-23" value="" style="edgeStyle=orthogonalEdgeStyle;rounded=0;orthogonalLoop=1;jettySize=auto;html=1;" edge="1" parent="1" source="yutas-239o2DtW6p7gl9-21" target="yutas-239o2DtW6p7gl9-22">
          <mxGeometry relative="1" as="geometry" />
        </mxCell>
        <mxCell id="yutas-239o2DtW6p7gl9-21" value="Caso de entrega en borrador Blackboard" style="rounded=0;whiteSpace=wrap;html=1;fillColor=#dae8fc;strokeColor=#6c8ebf;fontFamily=Times New Roman;fontSize=13;" vertex="1" parent="1">
          <mxGeometry x="354" y="172" width="120" height="44" as="geometry" />
        </mxCell>
        <mxCell id="yutas-239o2DtW6p7gl9-25" value="" style="edgeStyle=orthogonalEdgeStyle;rounded=0;orthogonalLoop=1;jettySize=auto;html=1;" edge="1" parent="1" source="yutas-239o2DtW6p7gl9-22" target="yutas-239o2DtW6p7gl9-24">
          <mxGeometry relative="1" as="geometry" />
        </mxCell>
        <mxCell id="yutas-239o2DtW6p7gl9-22" value="El área técnica ingresar con credenciales de administrador o docente a la plataforma Blackboard" style="whiteSpace=wrap;html=1;fontSize=13;fontFamily=Times New Roman;rounded=0;" vertex="1" parent="1">
          <mxGeometry x="334" y="243" width="159" height="66" as="geometry" />
        </mxCell>
        <mxCell id="yutas-239o2DtW6p7gl9-24" value="Ingreesar al curso/libro de calificaciones/elementos calificables/Seleccionar actividad/Entregada/Estado del estudiante:filtrar por borrador guardado" style="whiteSpace=wrap;html=1;fontSize=13;fontFamily=Times New Roman;rounded=0;" vertex="1" parent="1">
          <mxGeometry x="334" y="336" width="157" height="99" as="geometry" />
        </mxCell>
      </root>
    </mxGraphModel>
  </diagram>
</mxfile>
